<?xml version="1.0" encoding="utf-8"?><svg viewBox="0 0 26 26" xmlns="http://www.w3.org/2000/svg" xmlns:xlink="http://www.w3.org/1999/xlink"><style>:root>svg{display:none}:root>svg:target{display:block}</style><svg fill="none" viewBox="0 0 26 26" id="coins" xmlns="http://www.w3.org/2000/svg"><path d="M23.467.977C22.039.347 20.157 0 18.169 0c-1.989 0-3.87.347-5.298.977-1.626.717-2.521 1.747-2.521 2.898v6.565a7.935 7.935 0 00-2.387-.366C3.573 10.074 0 13.646 0 18.037 0 22.427 3.572 26 7.963 26a7.97 7.97 0 007.003-4.175c.998.21 2.093.32 3.203.32 1.989 0 3.87-.346 5.298-.976 1.626-.717 2.521-1.747 2.521-2.899V3.875c0-1.151-.895-2.18-2.521-2.898zm-9.98 1.394c1.238-.547 2.9-.848 4.682-.848 1.782 0 3.445.301 4.683.848.995.439 1.613 1.015 1.613 1.504 0 .49-.618 1.066-1.613 1.505-1.238.547-2.901.848-4.683.848-1.781 0-3.444-.301-4.683-.848-.995-.439-1.613-1.015-1.613-1.505 0-.489.619-1.065 1.613-1.504zM7.962 24.477a6.447 6.447 0 01-6.44-6.44c0-3.55 2.89-6.44 6.44-6.44 3.55 0 6.44 2.89 6.44 6.44 0 3.55-2.89 6.44-6.44 6.44zm14.889-4.702c-1.238.547-2.901.847-4.683.847-.899 0-1.783-.079-2.599-.23a7.919 7.919 0 00.347-2c.724.102 1.477.155 2.252.155 1.989 0 3.87-.347 5.298-.977.372-.164.705-.344.998-.538v1.238c0 .49-.618 1.066-1.613 1.505zm0-3.598c-1.238.546-2.901.847-4.683.847-.81 0-1.593-.063-2.333-.185a7.895 7.895 0 00-.658-2.169c.937.182 1.953.278 2.991.278 1.989 0 3.87-.347 5.298-.976.372-.164.705-.345.998-.54v1.24c0 .489-.618 1.066-1.613 1.505zm0-3.6c-1.238.547-2.901.848-4.683.848-1.575 0-3.078-.24-4.26-.677a8.018 8.018 0 00-2.036-1.645V9.834c.294.194.627.375.998.539 1.428.63 3.31.977 5.298.977 1.989 0 3.87-.347 5.298-.977.372-.164.705-.345.998-.539v1.239c0 .49-.618 1.066-1.613 1.505zm0-3.598c-1.238.546-2.901.847-4.683.847-1.781 0-3.444-.3-4.683-.847-.995-.439-1.613-1.015-1.613-1.505V6.235c.294.195.627.375.998.54 1.428.629 3.31.976 5.298.976 1.989 0 3.87-.347 5.298-.977.372-.164.705-.344.998-.539v1.24c0 .489-.618 1.065-1.613 1.504z" fill="#000" fill-opacity=".7"/><path d="M8.98 17.218H7.346a.668.668 0 010-1.335h2.759V14.36h-1.38v-1.028H7.2v1.033a2.193 2.193 0 00-2.045 2.185c0 1.208.982 2.19 2.19 2.19H8.98a.726.726 0 010 1.45H5.46v1.524H7.2v1.028h1.524v-1.028h.255a2.25 2.25 0 002.248-2.248 2.25 2.25 0 00-2.248-2.248z" fill="#000" fill-opacity=".7"/></svg><svg fill="none" viewBox="0 0 26 26" id="crown" xmlns="http://www.w3.org/2000/svg"><path d="M25.645 23.753h-1.676v-8.686a.572.572 0 00.074-.063l1.626-1.711a1.198 1.198 0 00-.02-1.678 1.232 1.232 0 00-.871-.354h-.056a1.748 1.748 0 00-.815.204 10.955 10.955 0 00-8.72-9.617A1.203 1.203 0 0014.173 0h-.075c-.4.001-.786.139-1.097.39A1.758 1.758 0 0011.902 0h-.056a1.233 1.233 0 00-.872.354 1.198 1.198 0 00-.163 1.495 10.956 10.956 0 00-8.719 9.616 1.748 1.748 0 00-.814-.204h-.056a1.231 1.231 0 00-.872.354 1.198 1.198 0 00-.019 1.678l1.627 1.711a.576.576 0 00.073.063v8.686H.355a.355.355 0 00-.355.355v1.536A.355.355 0 00.355 26h25.29a.357.357 0 00.355-.355v-1.536a.356.356 0 00-.355-.356zm-5.123-5.14a.356.356 0 00-.487.121l-.744 1.242a6.033 6.033 0 00-.857 3.099v.677h-1.008a12.312 12.312 0 015.014-9.554l.765.805a.558.558 0 00.053.046v8.703h-4.113v-.677c0-.963.261-1.908.756-2.734l.743-1.242a.355.355 0 00-.122-.487zm-11.238 5.14a13.027 13.027 0 00-5.227-10.077l.365-.383c.183-.195.296-.445.32-.711a13.69 13.69 0 007.74-8.944l.099.105a.577.577 0 00.838 0l.098-.104a13.69 13.69 0 007.74 8.943c.024.266.137.516.32.71l.366.385a13.026 13.026 0 00-5.227 10.076H9.284zm15.438-11.781h.056a.49.49 0 01.376.831l-1.53 1.61-1.53-1.61a.49.49 0 01.355-.831h.075a1.044 1.044 0 01.818.4l.008.008.01.01a.369.369 0 00.544-.018 1.041 1.041 0 01.818-.4zm-1.537-.579a1.746 1.746 0 00-.491-.123l-.234-.578a17.763 17.763 0 00-1.414-2.769l-.406-.647a.356.356 0 00-.602.378l.406.647c.53.844.983 1.734 1.357 2.658l.164.405a1.2 1.2 0 00-.558.502 12.97 12.97 0 01-7.308-8.84l.53-.557a10.244 10.244 0 018.556 8.924zM11.478.855a.517.517 0 01.367-.144h.057a1.041 1.041 0 01.817.4.368.368 0 00.562 0 1.042 1.042 0 01.817-.4h.075a.49.49 0 01.356.83l-.29.306-.005.005-.785.827-.002.002-.447.47-.447-.471-.79-.83-.293-.309a.49.49 0 01.008-.686zm-.107 1.615l.53.557a12.97 12.97 0 01-7.308 8.839 1.202 1.202 0 00-.559-.502l.164-.406c.374-.924.828-1.813 1.357-2.658l.406-.647a.355.355 0 10-.602-.378l-.406.648a17.757 17.757 0 00-1.414 2.769l-.234.577a1.746 1.746 0 00-.49.124A10.244 10.244 0 0111.37 2.47zM.846 12.802a.49.49 0 01.376-.83h.056a1.042 1.042 0 01.817.4.367.367 0 00.546.017l.008-.008.009-.009a1.041 1.041 0 01.817-.4h.075a.49.49 0 01.356.83l-1.53 1.61-1.53-1.61zm1.896 2.247a.57.57 0 00.054-.045l.764-.806a12.31 12.31 0 015.014 9.554H7.566v-.677a6.033 6.033 0 00-.857-3.1l-.744-1.241a.356.356 0 00-.609.365l.744 1.242c.494.826.756 1.771.755 2.734v.677H2.742V15.05zM25.29 25.29H.711v-.825h24.578v.824z" fill="#000" fill-opacity=".7"/></svg><svg fill="none" viewBox="0 0 25 26" id="people" xmlns="http://www.w3.org/2000/svg"><path d="M19.897 6.5a2.712 2.712 0 002.708-2.708 2.711 2.711 0 00-2.708-2.709 2.712 2.712 0 00-2.708 2.709A2.712 2.712 0 0019.897 6.5zm0-4.333c.896 0 1.625.729 1.625 1.625s-.728 1.625-1.625 1.625c-.896 0-1.625-.73-1.625-1.625 0-.896.73-1.625 1.625-1.625zM24.615 15.508l-.694-5.551a2.71 2.71 0 00-2.687-2.373h-2.675c-.301 0-.604.053-.902.16a.542.542 0 00.361 1.02c.181-.064.363-.096.541-.096h2.675c.818 0 1.51.612 1.612 1.423l.694 5.551a.536.536 0 01-.13.426.534.534 0 01-.407.183h-.398a.541.541 0 00-.54.503l-.506 7.08h-3.325l-.39-5.456a.536.536 0 00-.578-.502.541.541 0 00-.502.579l.426 5.959a.544.544 0 00.54.503h4.334a.54.54 0 00.54-.502l.505-7.084a1.624 1.624 0 001.506-1.823zM7.354 18a.535.535 0 00-.578.501l-.382 5.332H3.07l-.505-7.08a.543.543 0 00-.542-.503h-.398a.534.534 0 01-.406-.183.535.535 0 01-.13-.426l.694-5.55c.1-.812.793-1.424 1.612-1.424h2.674c.122 0 .25.018.409.06a.546.546 0 00.662-.386.543.543 0 00-.387-.662 2.665 2.665 0 00-.685-.096H3.394A2.712 2.712 0 00.707 9.956l-.695 5.55a1.626 1.626 0 001.506 1.824l.506 7.084c.02.283.257.503.54.503h4.333c.284 0 .52-.22.54-.503l.418-5.836a.542.542 0 00-.5-.578zM4.73 6.5A2.712 2.712 0 007.44 3.792 2.711 2.711 0 004.73 1.083a2.712 2.712 0 00-2.708 2.709A2.712 2.712 0 004.73 6.5zm0-4.333c.896 0 1.625.729 1.625 1.625S5.627 5.417 4.73 5.417c-.894 0-1.625-.73-1.625-1.625 0-.896.73-1.625 1.625-1.625z" fill="#000" fill-opacity=".7"/><path d="M17.084 15.423l-.719-6.292c-.17-1.5-1.358-2.631-2.762-2.631h-2.766c-1.402 0-2.59 1.131-2.76 2.631l-.718 6.292c-.06.527.102 1.05.445 1.434.296.33.687.523 1.112.547l.598 8.094c.02.283.257.502.54.502h4.333a.54.54 0 00.54-.502l.598-8.094a1.601 1.601 0 001.112-.547c.345-.385.506-.907.447-1.434zm-1.253.712a.54.54 0 01-.396.188h-.413a.542.542 0 00-.54.501l-.598 8.093h-3.326l-.596-8.093a.542.542 0 00-.54-.501H9.01a.542.542 0 01-.397-.188.757.757 0 01-.178-.59l.719-6.291c.108-.952.833-1.67 1.685-1.67h2.766c.851 0 1.576.718 1.686 1.67l.718 6.292a.758.758 0 01-.178.59zM12.22 5.417a2.712 2.712 0 002.709-2.709A2.711 2.711 0 0012.22 0a2.712 2.712 0 00-2.708 2.708 2.712 2.712 0 002.708 2.709zm0-4.334c.896 0 1.625.73 1.625 1.625 0 .896-.729 1.625-1.625 1.625-.895 0-1.625-.729-1.625-1.625s.73-1.625 1.625-1.625z" fill="#000" fill-opacity=".7"/></svg></svg>